<?xml version="1.0" encoding="UTF-8" standalone="no"?>
<svg
   width="335.61172"
   height="304"
   viewBox="0 0 335.61172 304"
   fill="none"
   version="1.1"
   id="svg269"
   sodipodi:docname="Muñeco.svg"
   xmlns:inkscape="http://www.inkscape.org/namespaces/inkscape"
   xmlns:sodipodi="http://sodipodi.sourceforge.net/DTD/sodipodi-0.dtd"
   xmlns="http://www.w3.org/2000/svg"
   xmlns:svg="http://www.w3.org/2000/svg">
  <sodipodi:namedview
     id="namedview271"
     pagecolor="#505050"
     bordercolor="#eeeeee"
     borderopacity="1"
     inkscape:showpageshadow="0"
     inkscape:pageopacity="0"
     inkscape:pagecheckerboard="0"
     inkscape:deskcolor="#505050"
     showgrid="false" />
  <g
     clip-path="url(#clip0_15_75)"
     id="g262"
     inkscape:export-filename="PaginaNe\EncriptadorFinal\assets\img\Mensa.webp"
     inkscape:export-xdpi="96"
     inkscape:export-ydpi="96"
     transform="translate(-0.38826546)">
    <path
       d="m 1.00271,250.395 c 2.92834,-1.446 4.16081,-5.261 7.33965,-6.266 3.26174,-1.032 6.89344,0.971 9.87454,-1.248 1.2973,-0.971 2.2604,-2.575 3.8357,-3.161 1.3819,-0.501 2.8226,0.046 4.1522,0.456 1.1358,0.355 2.2714,0.683 3.4071,1.038 4.5704,1.393 9.1131,2.759 13.6835,4.152 5.1797,1.556 10.3319,3.141 15.5117,4.698 0.4986,0.164 0.7173,-0.638 0.2186,-0.802 -9.4731,-2.868 -18.9186,-5.736 -28.3918,-8.604 -2.2159,-0.655 -4.516,-1.669 -6.8136,-1.938 -1.6056,-0.188 -2.8764,0.452 -4.0074,1.505 -1.5723,1.469 -2.7577,2.826 -5.054,2.944 -1.9089,0.117 -3.7922,-0.374 -5.70051,-0.064 -3.92726,0.621 -5.13048,4.905 -8.445564,6.545 -0.497156,0.278 -0.079689,0.995 0.389884,0.745 z"
       fill="#e8e8e8"
       id="path2" />
    <path
       d="m 50.716,246.749 c 1.9663,0.491 3.5093,-1.475 5.2783,-2.061 2.3771,-0.809 4.9239,-0.486 7.0864,0.75 0.4713,0.274 0.884,-0.445 0.4127,-0.72 -1.8299,-1.071 -3.9067,-1.506 -6.0088,-1.222 -0.9128,0.113 -1.7698,0.364 -2.5987,0.726 -1.1881,0.529 -2.5666,2.052 -3.9512,1.726 -0.5262,-0.137 -0.7449,0.665 -0.2187,0.801 z"
       fill="#e8e8e8"
       id="path4" />
    <path
       d="m 72.0434,244.607 c -1.859,-1.513 -3.6354,-3.136 -5.3015,-4.87 -0.7774,-0.799 -1.5274,-1.652 -2.2497,-2.506 -0.4167,-0.495 -0.8335,-0.991 -1.2225,-1.487 -0.2779,-0.358 -0.5558,-0.716 -0.8061,-1.074 -0.4442,-0.44 -0.446,-0.993 0.0223,-1.602 0.3326,0.137 0.8572,-0.196 0.5792,-0.582 -1.6955,-2.258 -2.949,-4.739 -3.7605,-7.443 -0.1655,0.166 -0.3309,0.332 -0.4964,0.499 0.914,0.245 1.5796,0.712 2.0803,1.484 0.2782,0.441 0.9963,0.052 0.7181,-0.417 -4.1468,-7.11 -7.5478,-14.61 -10.1196,-22.416 -0.2209,0.138 -0.4695,0.277 -0.6904,0.416 11.6321,11.338 16.9425,27.144 26.7529,39.841 0.3334,0.413 1.0515,-0.003 0.7181,-0.416 -9.8383,-12.753 -15.2042,-28.613 -26.8919,-40.007 -0.2776,-0.275 -0.8301,0.003 -0.6904,0.417 2.5998,7.889 6.001,15.444 10.2033,22.61 0.2486,-0.139 0.4695,-0.278 0.718,-0.417 -0.6396,-0.964 -1.4719,-1.597 -2.5796,-1.869 -0.3047,-0.082 -0.6082,0.195 -0.4965,0.498 0.8394,2.759 2.1209,5.323 3.8442,7.637 0.1931,-0.194 0.3861,-0.388 0.5792,-0.582 -0.776,-0.356 -1.6326,0.005 -1.8233,0.917 -0.2447,1.299 1.3374,2.73 2.0598,3.639 2.473,3.057 5.2771,5.836 8.3292,8.311 0.3609,0.331 0.94,-0.251 0.5238,-0.581 z"
       fill="#e8e8e8"
       id="path6" />
    <path
       d="m 69.0803,227.358 c -5.1169,-7.577 -9.2671,-15.71 -12.3397,-24.315 -0.0824,0.166 -0.1926,0.332 -0.275,0.498 0.9401,-0.224 1.7437,0.132 2.2722,0.959 0.2783,0.468 0.941,0.052 0.7181,-0.417 -4.3199,-9.236 -8.7241,-18.859 -8.4545,-29.271 -0.2488,0.084 -0.5253,0.14 -0.7741,0.224 7.4389,15.163 14.5188,30.521 21.2117,46.018 0.1951,0.441 0.9135,0.107 0.746,-0.334 -1.1179,-3.31 -2.2083,-6.648 -3.3262,-9.958 -0.5312,-1.627 -1.09,-3.227 -1.6211,-4.855 -0.3634,-1.075 -1.146,-3.42 0.4016,-4.005 -0.1662,-0.055 -0.3048,-0.137 -0.471,-0.192 2.0053,3.887 3.983,7.774 5.9883,11.661 0.2506,0.469 0.9687,0.052 0.7181,-0.417 -2.1725,-4.217 -3.1843,-8.881 -3.0064,-13.631 -0.2766,0.028 -0.5532,0.085 -0.8021,0.113 5.8032,14.257 12.5185,28.153 20.0622,41.576 0.2507,0.468 0.9687,0.052 0.7181,-0.417 -7.5159,-13.368 -14.2032,-27.18 -19.9786,-41.383 -0.1674,-0.413 -0.8038,-0.383 -0.8021,0.114 -0.1774,4.888 0.8901,9.662 3.1185,14.045 0.2485,-0.139 0.4694,-0.278 0.718,-0.417 -2.0053,-3.887 -3.983,-7.774 -5.9883,-11.661 -0.0835,-0.137 -0.3052,-0.247 -0.471,-0.191 -2.7637,1.031 -0.9796,4.974 -0.3646,6.822 1.4533,4.33 2.8791,8.689 4.3325,13.019 0.2487,-0.111 0.4973,-0.222 0.746,-0.334 -6.6929,-15.497 -13.7727,-30.854 -21.2116,-46.017 -0.195,-0.386 -0.7754,-0.164 -0.7741,0.223 -0.2968,10.55 4.191,20.338 8.5666,29.685 0.2486,-0.139 0.4695,-0.278 0.7181,-0.417 -0.7232,-1.13 -1.8871,-1.623 -3.2144,-1.342 -0.2211,0.056 -0.3587,0.305 -0.275,0.498 3.1004,8.66 7.2786,16.875 12.4233,24.508 0.2783,0.468 0.9963,0.051 0.6905,-0.389 z"
       fill="#e8e8e8"
       id="path8" />
    <path
       d="m 14.5806,280.919 c 9.5588,-4.644 19.643,-9.372 30.5768,-8.304 5.1762,0.507 10.1896,1.982 15.3387,2.627 2.6021,0.323 5.2314,0.452 7.8314,0.14 2.4341,-0.312 4.7278,-1.203 7.1058,-1.736 3.0691,-0.701 5.8663,0.008 8.8299,0.827 2.4372,0.654 4.8465,1.198 7.3626,0.61 0.5254,-0.112 0.3013,-0.912 -0.224,-0.8 -5.0322,1.204 -9.776,-2.397 -14.8651,-1.662 -2.5169,0.367 -4.8656,1.369 -7.3545,1.819 -2.6273,0.451 -5.3116,0.405 -7.9691,0.082 -5.2319,-0.59 -10.3285,-2.119 -15.5879,-2.682 -5.1764,-0.562 -10.2934,0.117 -15.2417,1.57 -5.6393,1.676 -10.9714,4.234 -16.2204,6.792 -0.4973,0.223 -0.0522,0.939 0.4175,0.717 z"
       fill="#e8e8e8"
       id="path10" />
    <path
       d="m 70.8293,303.623 c 3.2329,-1.391 6.41,-2.921 9.4758,-4.643 1.6019,-0.917 3.176,-1.861 4.7499,-2.86 1.4082,-0.916 2.8151,-2.219 4.3624,-2.887 1.7409,-0.724 4.3742,0.621 6.1192,1.139 1.8559,0.574 3.7117,1.12 5.5404,1.694 3.794,1.147 7.589,2.294 11.356,3.442 0.499,0.164 0.718,-0.638 0.219,-0.802 -4.044,-1.229 -8.116,-2.458 -12.16,-3.687 -1.9391,-0.601 -3.878,-1.175 -5.817,-1.776 -1.4958,-0.464 -3.3806,-1.424 -4.9566,-1.033 -1.4654,0.364 -2.7893,1.639 -4.0318,2.472 -1.6014,1.054 -3.2582,2.082 -4.9153,3.054 -3.3418,1.916 -6.7949,3.64 -10.3595,5.143 -0.4974,0.222 -0.0522,0.939 0.4175,0.744 z"
       fill="#e8e8e8"
       id="path12" />
    <path
       d="m 105.255,304.364 c 2.1,-1.056 4.199,-2.14 6.298,-3.196 1.934,-1.001 4.005,-2.333 6.218,-2.534 2.241,-0.229 3.989,1.229 5.929,2.079 1.635,0.712 3.407,1.121 5.178,1.225 4.152,0.207 8.019,-1.877 12.142,-1.67 3.294,0.183 6.623,2.878 9.855,1.155 0.47,-0.25 0.052,-0.967 -0.417,-0.717 -2.017,1.084 -4.206,0.042 -6.201,-0.587 -1.717,-0.546 -3.378,-0.789 -5.176,-0.59 -4.26,0.456 -8.156,2.264 -12.531,1.257 -3.628,-0.816 -6.405,-3.817 -10.303,-2.672 -1.797,0.531 -3.481,1.531 -5.139,2.365 -2.099,1.056 -4.199,2.14 -6.298,3.196 -0.442,0.223 -0.025,0.939 0.445,0.689 z"
       fill="#e8e8e8"
       id="path14" />
    <path
       d="m 121.395,298.318 c -1.721,-1.486 -3.276,-3.137 -4.555,-5.038 -0.584,-0.854 -1.113,-1.764 -1.614,-2.674 -0.251,-0.468 -0.473,-0.937 -0.669,-1.406 -0.167,-0.386 -0.334,-0.744 -0.474,-1.13 -0.25,-0.414 -0.141,-0.801 0.328,-1.161 0.249,-0.112 0.498,-0.223 0.746,-0.334 -3.059,-4.463 -4.985,-9.538 -5.639,-14.893 -0.249,0.111 -0.47,0.195 -0.719,0.306 0.501,0.634 1.001,1.267 1.529,1.928 0.305,0.386 0.885,-0.113 0.662,-0.499 -4.843,-8.572 -7.449,-18.229 -7.537,-28.059 -0.249,0.111 -0.47,0.195 -0.719,0.306 1.887,1.513 3.332,3.386 4.225,5.619 0.249,-0.111 0.498,-0.222 0.746,-0.334 -2.173,-4.549 -2.633,-9.683 -1.377,-14.548 -0.276,10e-4 -0.525,0.002 -0.802,0.003 5.727,16.19 11.426,32.354 17.152,48.544 0.168,0.497 0.97,0.273 0.802,-0.223 -2.878,-8.303 -4.318,-17.024 -4.265,-25.833 -0.248,0.111 -0.469,0.194 -0.718,0.306 1.693,1.513 2.751,3.415 3.146,5.65 0.084,0.469 0.831,0.356 0.802,-0.113 -0.089,-1.684 -0.205,-3.396 -0.294,-5.08 -0.221,0.111 -0.414,0.25 -0.635,0.361 1.47,0.934 1.755,3.418 2.23,4.963 0.504,1.655 1.007,3.311 1.539,4.993 1.035,3.421 2.098,6.814 3.133,10.235 2.098,6.814 4.197,13.655 6.295,20.469 0.167,0.496 0.969,0.3 0.801,-0.224 -2.266,-7.338 -4.504,-14.703 -6.77,-22.041 -1.091,-3.586 -2.21,-7.173 -3.301,-10.759 -0.559,-1.848 -1.119,-3.669 -1.679,-5.517 -0.363,-1.131 -0.782,-2.151 -1.808,-2.811 -0.249,-0.165 -0.636,0.058 -0.635,0.361 0.089,1.685 0.205,3.396 0.294,5.08 0.276,-0.028 0.553,-0.084 0.802,-0.113 -0.395,-2.373 -1.565,-4.44 -3.368,-6.036 -0.278,-0.248 -0.693,-0.081 -0.719,0.306 -0.053,8.865 1.387,17.669 4.293,26.054 0.277,-0.084 0.525,-0.14 0.802,-0.224 -5.727,-16.19 -11.426,-32.353 -17.153,-48.544 -0.139,-0.358 -0.693,-0.412 -0.802,0.003 -1.311,5.113 -0.795,10.441 1.462,15.183 0.195,0.413 0.941,0.107 0.746,-0.334 -0.949,-2.372 -2.422,-4.383 -4.447,-5.978 -0.278,-0.219 -0.72,-0.08 -0.719,0.307 0.089,9.968 2.723,19.79 7.65,28.472 0.22,-0.166 0.441,-0.333 0.662,-0.499 -0.5,-0.633 -1,-1.267 -1.528,-1.928 -0.223,-0.275 -0.748,-0.053 -0.719,0.306 0.655,5.521 2.61,10.734 5.752,15.307 0.278,0.386 0.83,0.135 0.746,-0.334 -0.141,-0.772 -1.055,-1.046 -1.69,-0.574 -1.16,0.832 -0.019,2.789 0.4,3.727 1.589,3.501 3.951,6.559 6.865,9.062 0.582,0.302 1.161,-0.28 0.745,-0.61 z"
       fill="#e8e8e8"
       id="path16" />
    <path
       d="m 92.2439,236.476 c -0.377,-5.19 9.0691,-2.239 11.6991,-1.751 4.319,0.786 8.611,1.573 12.93,2.359 8.611,1.573 17.25,3.146 25.861,4.719 0.526,0.108 0.745,-0.693 0.219,-0.802 -9.885,-1.817 -19.742,-3.607 -29.627,-5.424 -4.845,-0.895 -9.69,-1.79 -14.5358,-2.658 -1.7444,-0.325 -3.7656,-0.677 -5.3952,0.239 -1.2429,0.667 -2.069,1.885 -1.9535,3.321 0.0017,0.524 0.8595,0.521 0.8024,-0.003 z"
       fill="#e8e8e8"
       id="path18" />
    <path
       d="m 137.003,240.91 c 2.879,0.295 4.641,-2.445 6.878,-3.778 1.906,-1.111 3.569,-0.261 5.535,0.12 2.187,0.434 4.429,0.482 6.641,0.198 0.526,-0.057 0.523,-0.885 -0.002,-0.828 -2.49,0.312 -4.98,0.21 -7.418,-0.39 -1.467,-0.381 -2.797,-0.846 -4.262,-0.262 -2.598,1.003 -4.357,4.433 -7.374,4.112 -0.526,-0.053 -0.523,0.775 0.002,0.828 z"
       fill="#e8e8e8"
       id="path20" />
    <path
       d="m 189.949,293.836 c 6.634,-2.342 13.322,-4.684 20.179,-6.363 7.161,-1.736 14.381,-2.451 21.742,-2.254 7.279,0.196 14.504,1 21.756,1.639 7.279,0.666 14.559,1.304 21.839,1.97 8.359,0.746 16.746,1.491 25.105,2.264 0.526,0.053 0.524,-0.775 -0.002,-0.829 -14.92,-1.33 -29.839,-2.661 -44.786,-4.02 -14.366,-1.277 -28.817,-3.19 -43.113,-0.187 -7.853,1.655 -15.426,4.332 -22.971,6.98 -0.47,0.167 -0.246,0.968 0.251,0.8 z"
       fill="#e8e8e8"
       id="path22" />
    <path
       d="m 219.107,266.566 c 4.95,-1.066 9.591,-3.152 14.261,-5.046 5.002,-2.005 10.061,-3.402 15.428,-3.89 5.422,-0.487 10.874,-0.229 16.271,0.084 5.425,0.313 10.85,0.682 16.302,1.05 6.338,0.448 12.704,0.952 19.043,1.483 0.526,0.053 0.523,-0.775 -0.003,-0.828 -11.238,-0.957 -22.475,-1.776 -33.739,-2.456 -10.711,-0.654 -21.255,-0.895 -31.453,2.922 -5.417,2.034 -10.666,4.62 -16.362,5.854 -0.47,0.139 -0.273,0.939 0.252,0.827 z"
       fill="#e8e8e8"
       id="path24" />
    <path
       d="m 282.782,234.514 c 3.947,-3.023 8.116,-5.992 12.535,-8.271 2.155,-1.112 4.477,-2.003 6.911,-2.205 2.628,-0.229 5.258,0.286 7.833,0.609 5.232,0.618 10.491,0.987 15.749,1.301 3.488,0.209 7.917,0.691 10.369,-2.355 0.331,-0.415 -0.252,-0.993 -0.583,-0.578 -2.783,3.462 -8.681,2.183 -12.501,1.948 -5.258,-0.342 -10.462,-0.821 -15.694,-1.467 -2.243,-0.268 -4.457,-0.482 -6.697,-0.06 -2.212,0.394 -4.285,1.284 -6.246,2.34 -4.254,2.279 -8.284,5.109 -12.121,8.049 -0.386,0.305 0.031,1.022 0.445,0.689 z"
       fill="#e8e8e8"
       id="path26" />
    <path
       d="m 130.438,230.466 c 3.92,-2.968 7.867,-5.908 11.786,-8.876 3.754,-2.829 7.258,-5.795 12.183,-6.06 4.648,-0.237 9.409,0.272 14.031,0.643 4.983,0.398 9.938,0.933 14.865,1.607 4.153,0.566 9.111,2.096 13.033,-0.071 0.47,-0.25 0.052,-0.967 -0.417,-0.716 -2.016,1.111 -4.258,1.118 -6.5,0.85 -2.408,-0.296 -4.817,-0.702 -7.226,-1.026 -4.651,-0.619 -9.329,-1.128 -14.034,-1.499 -4.622,-0.371 -9.411,-0.907 -14.032,-0.616 -4.288,0.263 -7.462,2.483 -10.802,5.007 -4.444,3.328 -8.86,6.684 -13.304,10.013 -0.414,0.36 0.003,1.077 0.417,0.744 z"
       fill="#e8e8e8"
       id="path28" />
    <path
       d="m 286.213,259.135 c 0.243,-1.824 0.597,-3.592 1.117,-5.361 0.246,-0.83 0.492,-1.659 0.821,-2.488 0.192,-0.498 0.715,-1.328 1.435,-1.137 0.361,0.109 0.531,1.351 0.559,1.599 0.057,0.442 0.666,0.578 0.803,0.108 1.286,-4.229 2.765,-8.873 6.742,-11.344 -0.222,-0.11 -0.416,-0.247 -0.638,-0.357 0.002,0.69 -0.023,1.408 -0.021,2.099 0.002,0.386 0.583,0.578 0.776,0.218 2.446,-5.117 5.112,-10.483 10.082,-13.592 -0.194,-0.166 -0.416,-0.303 -0.61,-0.468 -2.469,6.443 -5.354,12.721 -8.626,18.807 -0.22,0.387 0.335,0.882 0.666,0.495 1.846,-2.216 3.72,-4.431 6.15,-6.041 -0.194,-0.193 -0.389,-0.385 -0.583,-0.578 -3.05,6.472 -6.377,12.779 -10.037,18.922 -0.275,0.47 0.446,0.882 0.721,0.412 3.632,-6.143 6.987,-12.45 10.037,-18.922 0.165,-0.332 -0.196,-0.828 -0.583,-0.578 -2.485,1.665 -4.414,3.908 -6.316,6.179 0.222,0.165 0.444,0.33 0.666,0.495 3.3,-6.141 6.212,-12.475 8.708,-19 0.137,-0.332 -0.334,-0.634 -0.61,-0.468 -5.109,3.193 -7.858,8.642 -10.386,13.898 0.249,0.082 0.526,0.136 0.775,0.218 -0.002,-0.691 0.023,-1.409 0.021,-2.099 -0.001,-0.304 -0.361,-0.523 -0.637,-0.357 -4.143,2.582 -5.759,7.393 -7.1,11.843 0.277,0.027 0.554,0.081 0.803,0.108 -0.143,-1.408 -1.424,-3.806 -2.968,-2.006 -0.772,0.914 -1.071,2.406 -1.399,3.539 -0.548,1.824 -0.929,3.704 -1.199,5.61 -0.026,0.552 0.75,0.771 0.831,0.246 z"
       fill="#e8e8e8"
       id="path30" />
    <path
       d="m 92.7196,213.168 c 2.1545,-1.167 4.3366,-2.335 6.7142,-2.978 2.5162,-0.671 5.0072,-0.458 7.5262,-0.135 5.011,0.646 10.021,1.292 15.004,1.938 0.526,0.081 0.524,-0.747 -0.002,-0.829 -5.343,-0.7 -10.714,-1.455 -16.057,-2.072 -2.464,-0.296 -4.816,-0.288 -7.193,0.41 -2.2668,0.671 -4.366,1.81 -6.4376,2.921 -0.4694,0.306 -0.0244,0.995 0.4452,0.745 z"
       fill="#e8e8e8"
       id="path32" />
    <path
       d="m 260.417,25.2982 c 1.986,-1.6911 4.782,-1.3691 6.972,-0.2994 1.663,0.7952 3.024,2.4199 4.961,2.4963 1.799,0.0492 3.289,-1.1708 4.809,-1.9767 1.022,-0.5281 2.072,-0.8906 3.235,-0.6459 1.246,0.2443 2.328,0.9587 3.464,1.452 3.741,1.6167 6.224,-0.656 9.372,-2.4614 0.884,-0.5 1.823,-0.945 2.847,-1.0313 1.3,-0.1148 2.464,0.4613 3.628,0.9544 1.829,0.7671 3.213,1.0663 5.065,0.3145 1.907,-0.752 3.457,-0.6467 5.368,0.0373 1.219,0.4377 2.383,0.9861 3.657,1.258 1.911,0.4355 3.958,0.3182 5.392,-1.1502 0.386,-0.3879 -0.224,-0.9657 -0.583,-0.5779 -1.847,1.8839 -4.673,1.0097 -6.806,0.1884 -2.161,-0.8212 -4.378,-1.6975 -6.672,-0.8338 -1.437,0.5571 -2.404,0.9469 -3.955,0.4275 -1.053,-0.3555 -2.024,-0.9322 -3.104,-1.2323 -1.634,-0.4916 -3.155,-0.2104 -4.647,0.5402 -1.713,0.8617 -3.202,2.2198 -4.998,2.9438 -2.377,0.9468 -4.235,-0.2896 -6.397,-1.1937 -1.579,-0.6574 -3.074,-0.7629 -4.649,-0.0673 -1.906,0.8624 -3.754,2.7464 -5.998,1.9531 -1.191,-0.4103 -2.135,-1.3736 -3.216,-1.9775 -0.915,-0.494 -1.912,-0.8497 -2.937,-1.0396 -1.966,-0.3524 -3.874,-0.0146 -5.419,1.2884 -0.386,0.4155 0.225,0.9934 0.611,0.6331 z"
       fill="#e8e8e8"
       id="path34" />
    <path
       d="m 270.441,44.1253 c 0.526,-0.0017 0.523,-0.8302 -0.002,-0.8284 -0.526,0.0018 -0.523,0.8302 0.002,0.8284 z"
       fill="#e8e8e8"
       id="path36" />
    <path
       d="m 275.986,47.1168 c 1.292,-2.3516 4.368,-1.2297 6.279,-0.4628 1.912,0.7668 3.63,1.2305 5.647,0.5334 1.659,-0.5855 3.149,-1.695 4.863,-2.0873 2.378,-0.5603 3.741,1.451 5.901,1.9133 3.378,0.7343 6.769,-3.0326 9.957,-1.4693 0.886,0.4389 1.497,1.0168 2.548,0.9304 0.969,-0.0584 1.853,-0.5308 2.793,-0.7549 2.626,-0.6163 5.367,-0.156 7.724,1.134 0.471,0.247 0.884,-0.4724 0.412,-0.7193 -1.497,-0.8235 -3.103,-1.3152 -4.792,-1.4752 -0.858,-0.08 -1.743,-0.0494 -2.6,0.0915 -1.024,0.1415 -1.963,0.5865 -2.959,0.7831 -1.355,0.2531 -1.938,-0.4077 -3.046,-0.8735 -0.555,-0.219 -1.164,-0.3275 -1.745,-0.2979 -1.383,0.0598 -2.709,0.6442 -3.981,1.1179 -1.63,0.6129 -3.372,1.1987 -5.035,0.3758 -1.413,-0.6857 -2.523,-1.7313 -4.184,-1.7258 -3.431,0.0391 -5.827,3.3332 -9.455,2.3512 -2.687,-0.7366 -7.012,-3.3455 -8.993,0.1958 -0.303,0.498 0.418,0.9099 0.666,0.4396 z"
       fill="#e8e8e8"
       id="path38" />
    <path
       d="m 249.255,80.2606 c 1.96,-1.553 4.201,-1.4776 6.363,-0.4907 1.192,0.5483 2.466,1.0687 3.709,0.319 0.718,-0.4442 1.186,-1.1362 2.043,-1.3876 0.912,-0.2792 1.881,-0.0891 2.768,0.1289 1.578,0.3813 3.102,1.0666 4.735,1.1716 1.938,0.1316 3.706,-0.7028 5.587,-0.9024 2.019,-0.2 3.434,1.0103 5.317,1.2801 1.827,0.2425 3.234,-1.2258 5.061,-0.9557 2.215,0.3239 4.403,1.0622 6.591,1.6072 0.526,0.1363 0.745,-0.6653 0.219,-0.8016 -2.299,-0.5722 -4.682,-1.4479 -7.035,-1.6886 -1.993,-0.2142 -3.426,1.4198 -5.42,0.819 -1.856,-0.5461 -3.187,-1.3425 -5.179,-1.0597 -2.129,0.3109 -4.063,1.1458 -6.251,0.6836 -1.689,-0.3533 -3.324,-1.1487 -5.068,-1.2533 -0.637,-0.0255 -1.3,0.032 -1.908,0.2825 -0.774,0.3064 -1.187,0.9429 -1.905,1.3595 -1.657,0.972 -3.905,-1.0639 -5.677,-1.1961 -1.688,-0.1324 -3.236,0.4527 -4.561,1.4788 -0.414,0.3604 0.197,0.9383 0.611,0.6055 z"
       fill="#e8e8e8"
       id="path40" />
    <path
       d="m 90.4158,20.5365 c 0.5257,-0.0018 0.523,-0.8302 -0.0028,-0.8285 -0.5258,0.0018 -0.523,0.8302 0.0028,0.8285 z"
       fill="#e8e8e8"
       id="path42" />
    <path
       d="m 92.8529,21.1634 c 0.4898,-2.4593 3.7603,-0.8962 4.9526,-0.1546 1.3588,0.8515 2.8005,1.6199 4.4585,1.1449 1.797,-0.5306 3.01,-2.0811 5.002,-2.1982 1.881,-0.0891 3.71,0.7608 5.483,1.3072 1.523,0.4643 3.129,0.7903 4.705,0.3985 1.853,-0.4481 3.426,-1.7512 5.306,-2.0889 3.706,-0.6475 7.064,2.3513 10.824,1.1789 0.497,-0.1673 0.301,-0.9675 -0.224,-0.8 -3.925,1.2557 -7.673,-2.2112 -11.653,-0.9552 -2.046,0.6419 -3.756,2.0836 -5.998,2.0082 -2.076,-0.0759 -3.961,-1.0637 -5.927,-1.5542 -1.551,-0.3814 -3.128,-0.4866 -4.62,0.2088 -0.857,0.3894 -1.602,1.027 -2.458,1.4441 -1.409,0.6675 -2.6,0.2849 -3.8758,-0.4289 -1.3862,-0.7962 -2.5792,-1.7311 -4.2667,-1.5874 -1.1895,0.0869 -2.239,0.6979 -2.4563,1.9137 -0.1368,0.4699 0.6664,0.6881 0.7477,0.1631 z"
       fill="#e8e8e8"
       id="path44" />
    <path
       d="m 95.9097,182.394 c 3.2882,-1.391 6.6173,1.055 9.9383,1.21 1.716,0.077 3.374,-0.343 5.061,-0.68 2.13,-0.421 3.956,-0.455 6.006,0.394 1.247,0.521 2.383,0.848 3.654,0.347 0.719,-0.278 1.326,-0.75 2.044,-1.001 0.802,-0.279 1.632,-0.337 2.49,-0.34 2.961,0.046 5.925,1.058 8.743,-0.277 0.47,-0.223 0.052,-0.939 -0.418,-0.717 -3.011,1.419 -6.364,-0.117 -9.545,0.225 -1.522,0.171 -2.515,1.058 -3.925,1.477 -1.686,0.503 -3.351,-0.928 -5.012,-1.171 -3.572,-0.54 -6.941,1.459 -10.541,0.754 -2.879,-0.571 -5.7903,-2.246 -8.7193,-0.993 -0.4698,0.195 -0.2457,0.995 0.224,0.772 z"
       fill="#e8e8e8"
       id="path46" />
    <path
       d="m 35.949,141.919 c 2.4146,-0.009 4.3655,-1.969 4.3575,-4.378 -0.0081,-2.41 -1.972,-4.357 -4.3866,-4.349 -2.4146,0.008 -4.3655,1.968 -4.3575,4.378 0.0081,2.41 1.972,4.357 4.3866,4.349 z"
       fill="#ff00b7"
       id="path48" />
    <path
       d="m 290.339,111.079 c 1.697,-0.005 3.067,-1.382 3.062,-3.075 -0.006,-1.693 -1.386,-3.061 -3.082,-3.055 -1.696,0.006 -3.067,1.382 -3.061,3.075 0.005,1.693 1.385,3.061 3.081,3.055 z"
       fill="#ff00b7"
       id="path50" />
    <path
       d="m 262.339,4.38748 c 1.253,-0.00419 2.266,-1.02137 2.262,-2.27194 -0.004,-1.250577 -1.024,-2.260974 -2.277,-2.256787 -1.253,0.004186 -2.265,1.021371 -2.261,2.271947 0.004,1.25057 1.023,2.26097 2.276,2.25678 z"
       fill="#ff00b7"
       id="path52" />
    <path
       d="m 163.047,201.086 c 1.559,-0.005 2.819,-1.27 2.813,-2.826 -0.005,-1.556 -1.273,-2.812 -2.831,-2.807 -1.559,0.005 -2.819,1.27 -2.813,2.826 0.005,1.555 1.273,2.812 2.831,2.807 z"
       fill="#ff00b7"
       id="path54" />
    <path
       d="m 32.4038,41.5516 c 1.788,-0.006 3.2326,-1.4573 3.2267,-3.2417 -0.006,-1.7843 -1.4603,-3.226 -3.2483,-3.22 -1.7881,0.006 -3.2327,1.4573 -3.2268,3.2417 0.006,1.7843 1.4603,3.226 3.2484,3.22 z"
       fill="#ff00b7"
       id="path56" />
    <path
       d="m 144.407,154.535 c 1.024,-0.003 1.852,-0.834 1.848,-1.856 -0.003,-1.022 -0.836,-1.848 -1.86,-1.844 -1.024,0.003 -1.851,0.834 -1.848,1.856 0.004,1.022 0.837,1.848 1.86,1.844 z"
       fill="#ff00b7"
       id="path58" />
    <path
       d="m 319.452,169.691 c 1.559,-0.006 2.818,-1.271 2.813,-2.826 -0.005,-1.556 -1.273,-2.813 -2.832,-2.808 -1.559,0.006 -2.818,1.271 -2.813,2.826 0.005,1.556 1.273,2.813 2.832,2.808 z"
       fill="#ff00b7"
       id="path60" />
    <path
       d="m 11.9607,217.276 c 1.1614,-0.004 2.0998,-0.947 2.0959,-2.106 -0.0038,-1.159 -0.9485,-2.095 -2.11,-2.092 -1.1614,0.004 -2.09983,0.947 -2.09596,2.106 0.00387,1.159 0.94856,2.096 2.11006,2.092 z"
       fill="#ff00b7"
       id="path62" />
    <path
       d="m 97.4173,53.8991 c -2.391,4.8958 -4.8097,9.7916 -7.2008,14.6874 10.0065,13.3044 20.0125,26.5811 30.0185,39.8855 2.56,-3.902 5.093,-7.887 7.653,-11.8998 6.028,-9.5195 11.78,-18.9277 17.283,-28.2521 -1.898,-4.771 -3.823,-9.5695 -5.721,-14.3405 -1.219,-0.6311 -2.439,-1.2345 -3.658,-1.8656 -11.788,0.067 -23.576,0.134 -35.336,0.2009 -1.0498,0.5558 -2.0442,1.0838 -3.0387,1.5842 z"
       fill="#ffffff"
       id="path64" />
    <path
       d="m 90.5493,68.8062 c 2.0876,-4.6186 4.2306,-9.2097 6.4291,-13.7735 0.2198,-0.4702 -0.4734,-0.9097 -0.7208,-0.4118 -2.1985,4.5638 -4.3415,9.1549 -6.4291,13.7735 -0.2198,0.4702 0.5011,0.9096 0.7208,0.4118 z"
       fill="#5a7099"
       id="path66" />
    <path
       d="m 89.9975,69.3051 c 9.7848,13.3052 19.7625,26.444 29.9335,39.4719 0.334,0.413 0.913,-0.169 0.58,-0.582 -10.116,-12.9727 -20.039,-26.0565 -29.7954,-39.3065 -0.3058,-0.4132 -1.0239,0.0034 -0.7181,0.4166 z"
       fill="#5a7099"
       id="path68" />
    <path
       d="m 97.1705,54.5626 c 1.1601,-0.6114 2.2925,-1.2503 3.4525,-1.8617 0.47,-0.2501 0.052,-0.9667 -0.417,-0.7166 -1.1604,0.6114 -2.2928,1.2503 -3.453,1.8617 -0.4972,0.2778 -0.0521,0.9667 0.4175,0.7166 z"
       fill="#5a7099"
       id="path70" />
    <path
       d="m 101.315,52.7539 c 8.634,-0.0289 17.295,-0.0578 25.928,-0.0867 0.526,-0.0017 0.523,-0.8301 -0.003,-0.8284 -8.633,0.0289 -17.294,0.0578 -25.928,0.0866 -0.525,0.0018 -0.523,0.8302 0.003,0.8285 z"
       fill="#5a7099"
       id="path72" />
    <path
       d="m 145.558,68.2358 c -1.759,-4.6057 -3.573,-9.156 -5.442,-13.7338 -0.195,-0.4964 -0.997,-0.2728 -0.802,0.2236 1.87,4.5501 3.684,9.1281 5.442,13.7338 0.196,0.4964 0.997,0.2728 0.802,-0.2236 z"
       fill="#5a7099"
       id="path74" />
    <path
       d="m 144.646,68.6532 c -8.063,13.2819 -16.293,26.4815 -24.689,39.5708 -0.303,0.443 0.418,0.855 0.721,0.412 8.396,-13.0895 16.626,-26.2615 24.689,-39.571 0.275,-0.4427 -0.446,-0.8822 -0.721,-0.4118 z"
       fill="#5a7099"
       id="path76" />
    <path
       d="m 139.615,53.6477 c -0.97,-0.6043 -1.941,-1.2362 -2.911,-1.8405 -0.444,-0.2747 -0.857,0.4171 -0.413,0.7194 0.971,0.6042 1.941,1.2361 2.912,1.8404 0.471,0.3022 0.884,-0.4172 0.412,-0.7193 z"
       fill="#5a7099"
       id="path78" />
    <path
       d="m 135.763,51.7275 c -7.223,0.0242 -14.445,0.0483 -21.639,0.0723 -0.526,0.0018 -0.523,0.8302 0.003,0.8285 7.222,-0.0242 14.444,-0.0483 21.638,-0.0723 0.526,-0.0018 0.523,-0.8302 -0.002,-0.8285 z"
       fill="#5a7099"
       id="path80" />
    <path
       d="m 90.8828,69.2194 c 4.946,-2.1429 9.8922,-4.2857 14.8382,-6.4286 0.497,-0.2226 0.052,-0.9114 -0.418,-0.7166 -4.946,2.1429 -9.8917,4.2857 -14.8377,6.4286 -0.4697,0.2225 -0.0522,0.939 0.4175,0.7166 z"
       fill="#5a7099"
       id="path82" />
    <path
       d="m 97.3081,54.3137 c 3.0449,0.4593 6.0359,1.112 8.9999,1.9306 0.526,0.1363 0.745,-0.6653 0.218,-0.8016 -2.963,-0.8461 -5.954,-1.4713 -8.9992,-1.9305 -0.526,-0.0811 -0.7724,0.7205 -0.2187,0.8015 z"
       fill="#5a7099"
       id="path84" />
    <path
       d="m 106.086,56.1069 c 0.671,2.0689 1.259,4.138 1.764,6.2626 0.112,0.5243 0.914,0.3007 0.802,-0.2236 -0.505,-2.1246 -1.093,-4.1937 -1.764,-6.2626 -0.168,-0.4965 -0.97,-0.3005 -0.802,0.2236 z"
       fill="#5a7099"
       id="path86" />
    <path
       d="m 107.359,56.1855 c 7.416,-0.0248 14.804,-0.0494 22.22,-0.0742 0.526,-0.0018 0.523,-0.8302 -0.003,-0.8284 -7.416,0.0247 -14.804,0.0494 -22.22,0.0742 -0.526,0.0017 -0.523,0.8302 0.003,0.8284 z"
       fill="#5a7099"
       id="path88" />
    <path
       d="m 129.22,56.2782 c -0.272,1.5197 -0.543,3.067 -0.815,4.5867 -0.081,0.5249 0.722,0.7432 0.803,0.2182 0.272,-1.5197 0.543,-3.067 0.815,-4.5867 0.081,-0.5249 -0.722,-0.7432 -0.803,-0.2182 z"
       fill="#5a7099"
       id="path90" />
    <path
       d="m 108.293,62.4232 c 6.475,-0.0217 12.95,-0.0433 19.453,-0.065 0.525,-0.0018 0.523,-0.8302 -0.003,-0.8284 -6.475,0.0216 -12.95,0.0432 -19.453,0.065 -0.526,0.0017 -0.523,0.8301 0.003,0.8284 z"
       fill="#5a7099"
       id="path92" />
    <path
       d="m 130.381,56.1087 c 3.014,-0.6452 6.001,-1.2903 9.015,-1.9355 0.525,-0.1123 0.301,-0.9123 -0.224,-0.8001 -3.014,0.6452 -6.001,1.2903 -9.015,1.9355 -0.525,0.1122 -0.301,0.9123 0.224,0.8001 z"
       fill="#5a7099"
       id="path94" />
    <path
       d="m 129.018,62.1055 c 2.796,0.4325 5.402,1.9978 7.952,3.1767 2.716,1.2612 5.404,2.5225 8.12,3.7837 0.472,0.2193 0.912,-0.5001 0.413,-0.7194 -2.882,-1.3435 -5.737,-2.6594 -8.619,-4.0029 -2.439,-1.1517 -4.962,-2.6068 -7.648,-3.0397 -0.526,-0.081 -0.744,0.7205 -0.218,0.8016 z"
       fill="#5a7099"
       id="path96" />
    <path
       d="m 108.546,63.6927 c 3.647,14.7892 7.266,29.6062 10.913,44.3953 0.14,0.524 0.914,0.301 0.801,-0.224 -3.646,-14.7887 -7.265,-29.6056 -10.912,-44.3949 -0.14,-0.5242 -0.942,-0.3006 -0.802,0.2236 z"
       fill="#5a7099"
       id="path98" />
    <path
       d="m 127.864,64.6223 c -3.328,14.2602 -6.075,28.6841 -8.185,43.1887 -0.081,0.525 0.722,0.743 0.803,0.218 2.11,-14.5043 4.857,-28.9007 8.185,-43.1885 0.137,-0.5251 -0.666,-0.7434 -0.803,-0.2182 z"
       fill="#5a7099"
       id="path100" />
    <path
       d="m 128.048,36.9795 c 1.235,-3.1798 1.916,-6.5234 2.015,-9.9479 0.026,-0.5248 -0.804,-0.522 -0.83,0.0028 -0.1,3.3416 -0.781,6.6024 -1.988,9.7269 -0.192,0.4977 0.611,0.6883 0.803,0.2182 z"
       fill="#5a7099"
       id="path102" />
    <path
       d="m 133.723,37.5129 c 2.646,-3.0188 5.626,-5.6798 8.966,-7.9277 0.442,-0.3053 0.025,-1.0218 -0.417,-0.7166 -3.396,2.2757 -6.458,4.9922 -9.132,8.0663 -0.359,0.3878 0.224,0.9658 0.583,0.578 z"
       fill="#5a7099"
       id="path104" />
    <path
       d="m 139.191,42.6033 c 3.428,-1.0332 6.968,-1.4316 10.539,-1.1674 0.526,0.0259 0.523,-0.8026 -0.003,-0.8284 -3.653,-0.264 -7.249,0.1347 -10.76,1.1957 -0.497,0.1674 -0.301,0.9675 0.224,0.8001 z"
       fill="#5a7099"
       id="path106" />
    <path
       d="m 80.8235,23.4405 c 0.3503,5.4665 -2.7038,10.6958 -7.6213,13.0871 -0.2762,0.139 -0.2472,0.5531 0.0024,0.718 4.5194,2.6911 6.6114,7.6547 7.8176,12.5385 0.1401,0.5242 0.9141,0.3007 0.8017,-0.2236 -1.2623,-5.1045 -3.4932,-10.261 -8.2066,-13.0343 8e-4,0.2486 0.0015,0.4695 0.0024,0.718 5.1661,-2.5302 8.4127,-8.0916 8.0339,-13.8065 -0.0294,-0.5246 -0.8596,-0.5218 -0.8301,0.0028 z"
       fill="#e8e8e8"
       id="path108" />
    <path
       d="m 81.1279,23.4395 c -0.3406,5.7449 2.9431,11.2845 8.1259,13.7525 -8e-4,-0.2486 -0.0016,-0.4695 -0.0024,-0.718 -4.7223,2.8324 -6.9187,8.0037 -8.1468,13.1441 -0.1366,0.5251 0.6666,0.7434 0.8032,0.2182 1.1735,-4.9193 3.2321,-9.9244 7.7611,-12.6457 0.2486,-0.1389 0.2748,-0.5809 -0.0024,-0.718 -4.9334,-2.3584 -8.05,-7.5671 -7.7362,-13.0358 0.0536,-0.5249 -0.7765,-0.5221 -0.8024,0.0027 z"
       fill="#e8e8e8"
       id="path110" />
    <path
       d="m 250.986,160.887 c 0.967,-0.417 2.293,-1.029 3.812,-1.89 2.541,-1.417 3.811,-2.139 4.582,-3.274 0.992,-1.494 0.602,-2.294 1.897,-3.789 0.193,-0.25 1.103,-1.219 2.291,-1.748 2.045,-0.863 3.958,0.153 7.143,1.274 2.937,1.04 5.235,1.529 9.832,2.536 1.828,0.408 4.043,0.814 7.256,1.798 0.914,0.273 1.635,0.519 2.133,0.683 0.057,0.58 0.09,2.071 -0.874,3.427 -0.441,0.609 -1.048,1.108 -2.015,1.553 -2.238,1.057 -4.369,0.871 -6.168,0.794 -3.874,-0.153 -2.267,0.394 -11.398,0.591 -1.993,0.034 -3.625,0.039 -4.76,0.043 -1.408,0.971 -2.816,1.97 -4.251,2.997 -2.429,1.775 -4.748,3.55 -6.956,5.297 -0.841,-3.421 -1.683,-6.87 -2.524,-10.292 z"
       fill="#ff00b7"
       id="path112" />
    <path
       d="m 239.329,125.58 c -1.989,1.056 -2.209,1.443 -9.604,7.764 -11.534,9.842 -12.805,10.371 -23.262,19.546 -10.015,8.76 -11.889,10.947 -13.789,13.826 -4.735,7.278 -5.766,13.357 -6.061,16.312 -0.402,3.978 -0.937,9.503 2.592,13.854 2.223,2.727 5.105,3.849 6.074,4.205 2.909,1.095 5.289,0.949 9.577,0.631 5.698,-0.434 10.039,-1.553 11.753,-2.028 1.88,-0.531 6.248,-1.843 11.718,-4.568 5.138,-2.557 7.345,-4.443 14.358,-9.188 3.12,-2.109 7.731,-5.19 13.53,-8.744 0.35,-2.762 0.039,-4.915 -0.27,-6.267 -0.73,-3.201 -2.204,-5.406 -3.845,-7.83 -1.335,-1.984 -2.613,-3.498 -3.502,-4.49 2.07,-1.581 4.775,-3.854 7.615,-6.901 1.902,-2.05 4.907,-5.318 7.41,-9.911 3.08,-5.643 6.161,-11.342 4.155,-15.257 -3.147,-6.147 -18.035,-6.374 -28.449,-0.954 z"
       fill="#ffffff"
       id="path114" />
    <path
       opacity="0.18"
       d="m 264.132,128.507 c -1.565,3.65 -4.149,8.823 -8.281,14.36 -6.006,8 -12.079,12.439 -21.243,19.014 -25.922,18.588 -32.881,22.837 -32.1,24.601 1.059,2.399 15.683,-1.957 17.812,-2.6 15.535,-4.636 26.968,-11.743 34.117,-16.931 -1.835,-2.783 -3.671,-5.566 -5.507,-8.321 2.236,-1.609 5.327,-4.16 8.22,-7.953 1.598,-2.076 4.022,-5.288 5.583,-10.125 1.589,-4.811 1.63,-9.091 1.399,-12.045 z"
       fill="#9b9797"
       id="path116" />
    <path
       d="m 239.218,125.553 c -9.826,7.35 -19.403,15.059 -28.618,23.126 -4.414,3.853 -8.829,7.706 -12.966,11.834 -3.668,3.658 -7.086,7.701 -9.145,12.513 -2.142,4.978 -2.731,10.723 -2.188,16.106 0.458,4.445 2.106,8.913 6.181,11.219 4.269,2.388 9.637,2.122 14.339,1.609 5.781,-0.599 11.477,-2.027 16.865,-4.226 12.021,-4.928 21.426,-14.1 32.779,-20.186 0.47,-0.25 0.052,-0.966 -0.418,-0.716 -9.474,5.085 -17.529,12.402 -27.031,17.487 -4.972,2.668 -10.334,4.619 -15.864,5.825 -5.116,1.094 -10.869,1.941 -16.074,0.965 -2.437,-0.462 -4.792,-1.448 -6.541,-3.265 -1.694,-1.789 -2.615,-4.133 -3.094,-6.534 -1.041,-5.216 -0.59,-11.127 1.108,-16.158 1.699,-5.032 5.033,-9.268 8.673,-13.036 3.778,-3.906 7.917,-7.509 11.973,-11.085 9.794,-8.649 19.95,-16.912 30.439,-24.734 0.414,-0.333 0.024,-1.05 -0.418,-0.744 z"
       fill="#5a7099"
       id="path118" />
    <path
       d="m 212.29,182.252 c 9.064,-3.537 17.265,-8.811 25.049,-14.581 3.837,-2.829 7.618,-5.769 11.371,-8.709 3.698,-2.912 7.23,-5.989 10.095,-9.726 0.331,-0.416 -0.39,-0.827 -0.72,-0.412 -2.921,3.82 -6.591,6.898 -10.344,9.865 -3.698,2.912 -7.424,5.796 -11.234,8.598 -7.618,5.604 -15.598,10.767 -24.441,14.193 -0.498,0.167 -0.274,0.967 0.224,0.772 z"
       fill="#5a7099"
       id="path120" />
    <path
       d="m 248.295,158.881 c 5.355,4.455 8.201,11.377 7.477,18.311 -0.054,0.525 0.777,0.522 0.83,-0.003 0.723,-7.127 -2.234,-14.297 -7.728,-18.89 -0.389,-0.358 -0.968,0.224 -0.579,0.582 z"
       fill="#5a7099"
       id="path122" />
    <path
       d="m 255.691,169.487 c 1.575,-0.474 2.955,-1.804 4.28,-2.748 1.656,-1.165 3.285,-2.33 4.941,-3.496 0.442,-0.305 0.024,-1.021 -0.417,-0.716 -1.491,1.054 -3.009,2.136 -4.5,3.19 -1.38,0.972 -2.897,2.468 -4.528,2.97 -0.526,0.14 -0.302,0.94 0.224,0.8 z"
       fill="#5a7099"
       id="path124" />
    <path
       d="m 251.098,161.274 c 3.122,-1.309 5.994,-3.085 8.588,-5.276 0.414,-0.36 -0.197,-0.938 -0.583,-0.578 -2.456,2.107 -5.217,3.801 -8.202,5.054 -0.497,0.222 -0.273,1.022 0.197,0.8 z"
       fill="#5a7099"
       id="path126" />
    <path
       d="m 259.38,155.64 c 0.526,-10e-4 0.523,-0.83 -0.003,-0.828 -0.525,0.002 -0.523,0.83 0.003,0.828 z"
       fill="#5a7099"
       id="path128" />
    <path
       d="m 260.373,154.643 c 0.467,-1.106 0.961,-2.323 1.843,-3.182 1.186,-1.164 2.626,-1.003 4.149,-0.677 2.824,0.626 5.594,1.501 8.364,2.292 2.576,0.709 5.152,1.336 7.809,1.631 1.55,0.16 2.851,0.349 4.237,1.035 1.026,0.494 1.913,0.988 3.048,1.095 0.526,0.053 0.523,-0.775 -0.003,-0.829 -1.522,-0.133 -2.716,-1.178 -4.156,-1.643 -1.441,-0.465 -3.045,-0.432 -4.541,-0.675 -3.267,-0.514 -6.452,-1.497 -9.61,-2.426 -1.551,-0.436 -3.102,-0.873 -4.68,-1.227 -1.163,-0.244 -2.382,-0.544 -3.543,-0.181 -2.018,0.614 -2.979,2.771 -3.72,4.569 -0.192,0.497 0.611,0.716 0.803,0.218 z"
       fill="#5a7099"
       id="path130" />
    <path
       d="m 264.804,163.851 c 5.918,-0.903 11.784,-1.061 17.761,-1.191 2.075,-0.035 4.288,-0.291 5.943,-1.649 1.408,-1.165 2.205,-2.852 1.811,-4.646 -0.112,-0.524 -0.914,-0.3 -0.802,0.224 0.535,2.511 -1.728,4.369 -3.968,4.929 -2.295,0.56 -4.786,0.292 -7.138,0.355 -4.648,0.098 -9.24,0.5 -13.831,1.206 -0.526,0.057 -0.274,0.857 0.224,0.772 z"
       fill="#5a7099"
       id="path132" />
    <path
       d="m 251.353,227.688 c 2.042,-1.471 4.113,-2.941 6.156,-4.412 0.135,-0.939 0.571,-2.984 2.253,-4.729 0.496,-0.527 1.654,-1.746 3.396,-2.083 1.826,-0.365 3.24,0.459 4.819,1.172 2.55,1.151 5.014,1.584 9.887,2.507 3.849,0.705 5.787,1.058 8.554,0.91 3.762,-0.233 6.443,-1.236 8.053,0.332 0.167,0.166 0.861,0.909 0.809,1.82 -0.079,1.16 -1.322,1.91 -2.316,2.493 -4.336,2.5 -6.769,3.226 -6.769,3.226 -6.137,1.816 -9.233,2.737 -11.889,2.967 -2.158,0.173 -5.229,0.266 -8.939,-0.301 -1.066,3.704 -4.324,6.089 -7.396,5.906 -3.958,-0.235 -7.625,-4.669 -6.618,-9.808 z"
       fill="#ff00b7"
       id="path134" />
    <path
       d="m 211.535,203.409 c 0.603,-1.852 1.73,-4.203 3.858,-4.983 1.382,-0.502 2.656,-0.175 3.071,-0.066 2.575,0.627 7.858,-0.302 18.394,-2.132 5.227,-0.901 11.836,-2.221 19.439,-4.18 0.033,1.409 0.011,3.259 -0.065,5.413 -0.177,4.833 -0.663,8.48 -0.771,9.336 -0.459,3.426 -1.27,9.117 -3.765,16.029 -0.631,1.77 -1.262,3.235 -1.702,4.231 1.081,0.493 2.246,1.152 3.383,2.087 4.689,3.713 6.063,8.982 6.513,11.218 -0.661,0.803 -1.654,1.993 -2.922,3.351 -5.129,5.485 -9.878,8.566 -18.935,14.202 -5.578,3.47 -9.665,5.997 -16.21,9.885 -7.954,4.721 -14.389,8.387 -22.406,10.706 -1.99,0.587 -5.142,1.37 -9.128,0.969 -1.938,-0.186 -5.426,-0.534 -8.782,-2.953 -4.299,-3.078 -5.67,-7.602 -6.23,-9.589 -1.26,-4.441 -0.804,-8.613 0.344,-12.952 0.792,-3.04 3.664,-13.129 13.726,-24.512 2.012,-2.271 7.751,-7.399 19.173,-17.655 2.758,-2.467 5.021,-4.49 6.538,-5.821 -1.165,-0.879 -2.33,-1.732 -3.523,-2.584 z"
       fill="#ffffff"
       id="path136" />
    <path
       opacity="0.18"
       d="m 249.142,195.635 c -0.628,2.432 -1.64,5.942 -3.176,10.062 -14.015,37.437 -45.561,53.697 -42.974,57.72 1.891,2.976 19.908,-4.513 32.887,-12.371 9.721,-5.887 16.95,-12.179 21.777,-16.918 -0.779,-1.129 -1.974,-2.672 -3.778,-4.129 -1.748,-1.403 -3.411,-2.253 -4.658,-2.774 0.854,-1.245 1.982,-3.127 2.943,-5.532 0.631,-1.549 1.179,-3.208 1.887,-6.579 1.144,-5.333 1.601,-9.56 1.735,-10.886 0.321,-3.177 0.612,-7.292 0.54,-12.152 -2.403,1.168 -4.779,2.363 -7.183,3.559 z"
       fill="#9b9797"
       id="path138" />
    <path
       d="m 255.91,192.05 c 0.045,5.219 -0.27,10.439 -0.972,15.633 -0.648,4.669 -1.462,9.476 -3.163,13.9 -1.838,4.784 -5.009,8.274 -8.844,11.573 -3.918,3.354 -7.864,6.654 -11.81,9.953 -4.525,3.798 -9.079,7.569 -13.604,11.367 -0.414,0.333 0.169,0.911 0.583,0.578 8.306,-6.931 16.612,-13.835 24.862,-20.849 3.642,-3.105 6.952,-6.319 8.93,-10.772 1.922,-4.314 2.847,-9.039 3.579,-13.681 0.921,-5.857 1.344,-11.768 1.269,-17.705 -0.002,-0.552 -0.832,-0.55 -0.83,0.003 z"
       fill="#5a7099"
       id="path140" />
    <path
       d="m 212.008,204.181 c 1.137,0.604 2.274,1.208 3.438,1.811 0.471,0.247 0.884,-0.472 0.412,-0.719 -1.136,-0.604 -2.273,-1.208 -3.437,-1.811 -0.471,-0.247 -0.884,0.472 -0.413,0.719 z"
       fill="#5a7099"
       id="path142" />
    <path
       d="m 215.445,205.661 c -9.825,8.041 -20.147,16.001 -28.333,25.748 -7.056,8.391 -12.859,19.014 -12.794,30.253 0.017,4.943 1.39,10.103 5.054,13.597 3.665,3.523 8.954,4.886 13.934,4.621 6.087,-0.324 11.862,-2.746 17.277,-5.415 5.801,-2.864 11.297,-6.251 16.82,-9.611 11.377,-6.942 24.084,-13.418 32.599,-23.968 0.331,-0.415 -0.252,-0.993 -0.583,-0.578 -7.137,8.861 -17.19,14.555 -26.773,20.386 -5.274,3.221 -10.493,6.497 -15.879,9.553 -5.275,3 -10.772,5.862 -16.605,7.566 -5.474,1.593 -11.588,1.944 -16.771,-0.772 -4.99,-2.579 -7.552,-7.596 -8.096,-13.062 -1.061,-11.043 4.464,-22.052 11.16,-30.469 8.349,-10.494 19.279,-18.87 29.6,-27.299 0.387,-0.305 -0.197,-0.883 -0.61,-0.55 z"
       fill="#5a7099"
       id="path144" />
    <path
       d="m 249.802,227.389 c 5.21,2.468 8.852,7.371 9.728,13.057 0.085,0.524 0.887,0.301 0.802,-0.224 -0.877,-5.879 -4.713,-11.03 -10.09,-13.552 -0.499,-0.22 -0.911,0.5 -0.44,0.719 z"
       fill="#5a7099"
       id="path146" />
    <path
       d="m 251.465,228.102 c 1.105,-0.446 1.988,-1.195 2.926,-1.916 1.104,-0.859 2.236,-1.692 3.34,-2.551 0.414,-0.333 -0.003,-1.05 -0.417,-0.717 -0.994,0.749 -1.988,1.498 -2.981,2.274 -0.966,0.749 -1.932,1.664 -3.092,2.109 -0.47,0.195 -0.274,0.996 0.224,0.801 z"
       fill="#5a7099"
       id="path148" />
    <path
       d="m 258.145,223.302 c 0.548,-1.631 1.207,-3.235 2.087,-4.729 1.211,-2.048 3.038,-1.833 5.087,-1.315 3.185,0.79 6.233,1.995 9.445,2.702 6.231,1.36 12.625,1.808 18.988,1.373 0.525,-0.03 0.523,-0.858 -0.003,-0.829 -7.497,0.522 -15.054,-0.226 -22.311,-2.245 -1.745,-0.491 -3.435,-1.121 -5.18,-1.612 -1.329,-0.382 -2.908,-0.819 -4.291,-0.538 -1.244,0.253 -1.96,1.194 -2.566,2.246 -0.852,1.494 -1.511,3.097 -2.059,4.729 -0.164,0.497 0.639,0.715 0.803,0.218 z"
       fill="#5a7099"
       id="path150" />
    <path
       d="m 259.379,236.635 c 2.071,-1.581 4.113,-3.161 6.183,-4.742 0.414,-0.333 -0.003,-1.05 -0.417,-0.717 -2.071,1.581 -4.113,3.162 -6.183,4.743 -0.414,0.333 0.004,1.049 0.417,0.716 z"
       fill="#5a7099"
       id="path152" />
    <path
       d="m 265.534,231.7 c 6.756,1.441 13.643,0.313 20.027,-2.138 2.901,-1.115 6.218,-2.368 8.702,-4.255 1.739,-1.303 1.98,-3.789 -0.32,-4.665 -0.499,-0.192 -0.718,0.61 -0.219,0.801 1.247,0.466 1.39,1.818 0.535,2.76 -0.413,0.471 -0.993,0.776 -1.546,1.11 -1.132,0.639 -2.292,1.222 -3.453,1.779 -2.459,1.168 -5.001,2.17 -7.627,2.952 -5.17,1.509 -10.591,2.024 -15.908,0.882 -0.499,-0.137 -0.717,0.665 -0.191,0.774 z"
       fill="#5a7099"
       id="path154" />
    <path
       d="m 193.024,112.675 c 4.195,-3.494 10.462,-7.712 18.838,-10.225 3.926,-1.173 8.846,-2.6255 15.378,-2.095 10.02,0.823 16.927,5.715 19.368,7.502 3.828,2.776 6.439,5.722 8.051,7.788 0.369,19.356 0.848,38.74 1.439,58.096 0.186,5.964 0.372,11.956 0.585,17.92 -3.921,2.443 -9.418,5.195 -16.386,6.82 -16.313,3.782 -29.916,-1.143 -35.431,-3.527 -0.044,-4.887 -0.373,-12.232 -1.897,-21.036 -2.483,-14.461 -6.293,-20.275 -8.715,-32.721 -1.211,-6.431 -2.378,-16.092 -1.23,-28.522 z"
       fill="#ff00b7"
       id="path156" />
    <path
       d="m 243.07,117.285 c -1.351,1.496 -1.594,3.181 -1.49,9.642 0.078,6.793 0.453,11.431 0.693,16.815 0.179,3.893 0.327,6.986 0.258,11.018 -0.066,5.081 -0.384,9.252 -0.679,12.042 -2.702,3.046 -5.101,5.429 -6.894,7.147 -4.027,3.852 -8.413,8.009 -14.903,11.924 -2.568,1.528 -4.778,2.64 -6.27,3.335 -1.357,-0.216 -2.88,-0.543 -4.542,-0.951 -3.932,-0.981 -5.568,-1.859 -8.528,-1.85 -0.886,0.003 -3.681,0.013 -3.954,1.008 -0.246,0.829 1.308,2.122 2.527,2.753 1.137,0.576 1.634,0.409 2.77,0.929 1.275,0.604 2.108,1.485 2.609,2.146 -0.524,0.747 -1.322,1.882 -2.203,3.348 -1.018,1.716 -1.237,2.379 -2.42,4.427 -1.238,2.158 -1.871,3.237 -2.423,3.791 -0.855,0.804 -1.38,0.971 -5.22,2.696 -3.813,1.725 -4.476,2.114 -4.475,2.583 0.002,0.47 0.75,0.578 3.715,1.838 2.41,1.014 2.632,1.234 3.879,1.589 1.551,0.436 2.493,0.709 3.626,0.457 1.798,-0.365 2.955,-1.722 3.451,-2.442 0.25,0.22 0.86,0.688 1.663,0.713 0.636,-0.002 1.161,-0.253 1.575,-0.585 1.739,-1.249 2.589,-3.544 4.296,-6.118 0.303,-0.442 1.377,-2.075 3.114,-3.904 1.075,-1.163 2.069,-2.022 2.786,-2.605 0.968,-0.224 2.406,-0.56 4.12,-1.063 6.662,-1.927 11.469,-4.236 15.503,-6.182 2.348,-1.14 4.999,-2.64 10.275,-5.612 4.585,-2.584 6.959,-4.028 9.053,-6.851 0.22,-0.305 1.35,-1.828 2.339,-4.068 0.302,-0.691 1.373,-3.152 1.939,-7.462 0.271,-1.906 0.267,-2.956 0.275,-8.92 0.03,-7.595 0.033,-6.683 0.03,-7.456 -0.065,-11.129 -0.642,-10.133 -0.87,-20.349 -0.031,-0.967 -0.068,-3.59 -0.881,-6.901 -0.87,-3.587 -1.954,-5.185 -2.566,-5.984 -0.778,-1.019 -1.723,-2.231 -3.33,-2.916 -2.938,-1.288 -6.836,-0.226 -8.848,2.018 z"
       fill="#ffffff"
       id="path158" />
    <path
       opacity="0.25"
       d="m 251.946,115.239 c 0.671,2.18 1.484,5.325 2.05,9.134 0.68,4.609 0.946,9.689 -0.504,22.977 -1.208,11.105 -1.799,16.657 -3.386,21.854 -2.272,7.409 -3.914,12.799 -8.964,17.068 -3.256,2.745 -6.821,4.027 -13.98,6.564 -5.251,1.868 -9.758,2.987 -12.855,3.688 -2.203,2.99 -5.484,6.784 -10.148,10.39 -3.643,2.828 -7.151,4.773 -10.052,6.108 0.416,0.275 2.135,1.374 4.459,1.062 2.71,-0.368 4.17,-2.306 4.418,-2.665 0.527,0.384 1.303,0.796 2.161,0.655 1.77,-0.282 2.702,-2.798 3.169,-3.932 1.016,-2.35 3.053,-5.588 7.634,-9.138 3.041,-0.811 7.16,-2.04 11.941,-3.878 6.66,-2.591 11.135,-5.091 15.941,-7.786 7.706,-4.333 9.443,-6.106 10.71,-7.823 2.314,-3.128 3.272,-6.334 3.682,-7.744 0.739,-2.515 0.868,-5.333 1.126,-10.829 0.18,-4.087 0.17,-7.235 0.162,-9.61 -0.014,-4.087 -0.107,-7.124 -0.199,-9.747 -0.123,-3.811 -0.36,-8.283 -0.931,-13.639 -0.428,-3.892 -0.738,-5.437 -1.629,-7.174 -1.365,-2.757 -3.391,-4.518 -4.805,-5.535 z"
       fill="#9b9797"
       id="path160" />
    <path
       d="m 242.654,117.176 c -1.426,3.594 -1.58,7.461 -1.484,11.299 0.097,4.225 0.333,8.421 0.541,12.646 0.416,8.559 0.721,17.146 -0.274,25.682 -0.054,0.525 0.776,0.522 0.83,-0.003 0.968,-8.343 0.719,-16.764 0.303,-25.13 -0.207,-4.141 -0.442,-8.283 -0.567,-12.452 -0.124,-4.004 -0.055,-8.036 1.455,-11.824 0.192,-0.498 -0.611,-0.716 -0.804,-0.218 z"
       fill="#5a7099"
       id="path162" />
    <path
       d="m 243.039,166.08 c -2.541,1.417 -4.582,3.467 -6.539,5.6 -2.123,2.299 -4.246,4.543 -6.619,6.594 -4.856,4.241 -10.323,7.739 -16.181,10.465 -0.497,0.222 -0.052,0.939 0.418,0.716 5.636,-2.614 10.91,-5.945 15.628,-9.965 2.346,-1.969 4.497,-4.13 6.565,-6.374 2.15,-2.354 4.301,-4.736 7.118,-6.292 0.497,-0.305 0.08,-1.022 -0.39,-0.744 z"
       fill="#5a7099"
       id="path164" />
    <path
       d="m 213.894,188.793 c -3.046,-0.625 -6.119,-1.277 -9.166,-1.957 -1.523,-0.327 -3.074,-0.736 -4.624,-1.007 -0.969,-0.162 -1.993,-0.241 -2.849,0.314 -1.325,0.86 -1.32,2.434 -0.127,3.369 0.86,0.688 1.968,0.988 2.993,1.316 1.662,0.519 3.075,1.177 4.159,2.582 0.333,0.413 1.051,-0.004 0.718,-0.417 -0.973,-1.24 -2.138,-2.119 -3.634,-2.639 -1.025,-0.356 -2.16,-0.573 -3.103,-1.094 -0.665,-0.357 -1.525,-0.906 -1.03,-1.902 0.468,-0.941 1.658,-0.862 2.516,-0.727 2.298,0.324 4.597,0.979 6.895,1.496 2.354,0.517 4.708,1.006 7.061,1.495 0.499,0.082 0.717,-0.72 0.191,-0.829 z"
       fill="#5a7099"
       id="path166" />
    <path
       d="m 203.616,193.55 c -1.21,2.241 -2.448,4.454 -3.658,6.695 -0.605,1.079 -1.127,2.24 -1.843,3.292 -0.743,1.08 -1.738,1.635 -2.898,2.191 -2.182,1.029 -4.532,1.866 -6.631,3.06 -0.939,0.556 -1.544,1.552 -0.739,2.516 1.001,1.184 2.964,0.708 4.291,0.482 1.825,-0.31 3.567,-0.923 5.224,-1.702 3.454,-1.668 6.378,-4.274 8.471,-7.484 0.302,-0.443 -0.418,-0.855 -0.721,-0.412 -1.845,2.878 -4.41,5.207 -7.421,6.818 -1.437,0.751 -2.984,1.363 -4.56,1.728 -0.885,0.223 -1.825,0.42 -2.766,0.451 -0.857,0.058 -1.078,0.169 -1.496,-0.686 -0.528,-0.495 -0.474,-0.827 0.135,-0.994 0.193,-0.084 0.359,-0.167 0.552,-0.251 1.768,-0.834 3.564,-1.641 5.333,-2.475 1.381,-0.64 2.735,-1.197 3.672,-2.442 1.102,-1.468 1.871,-3.21 2.751,-4.815 1.017,-1.853 2.035,-3.707 3.025,-5.533 0.248,-0.497 -0.473,-0.909 -0.721,-0.439 z"
       fill="#5a7099"
       id="path168" />
    <path
       d="m 216.282,199.555 c 7.381,-2.096 14.539,-4.881 21.39,-8.328 3.398,-1.723 6.712,-3.585 9.943,-5.639 2.899,-1.832 5.964,-3.693 8.03,-6.489 0.303,-0.442 -0.417,-0.854 -0.72,-0.411 -2.149,2.934 -5.518,4.851 -8.556,6.739 -3.093,1.915 -6.297,3.693 -9.556,5.333 -6.658,3.309 -13.595,5.983 -20.755,8.023 -0.498,0.112 -0.274,0.912 0.224,0.772 z"
       fill="#5a7099"
       id="path170" />
    <path
       d="m 243.21,117.92 c 2.282,-4.509 8.179,-3.507 11.095,-0.314 3.5,3.855 3.685,9.515 4.089,14.429 0.866,10.739 1.068,21.563 0.44,32.308 -0.315,5.22 -1.071,10.745 -4.544,14.899 -0.331,0.415 0.252,0.993 0.583,0.578 3.114,-3.766 4.178,-8.519 4.604,-13.27 0.561,-6.077 0.541,-12.235 0.465,-18.338 -0.077,-6.379 -0.403,-12.784 -1.005,-19.133 -0.459,-4.776 -1.334,-10.048 -5.301,-13.21 -3.385,-2.695 -9.03,-2.593 -11.174,1.639 -0.22,0.47 0.501,0.882 0.748,0.412 z"
       fill="#5a7099"
       id="path172" />
    <path
       d="m 191.393,212.258 c 2.023,0.905 4.462,2.277 6.759,2.27 2.214,-0.036 3.84,-1.863 5.33,-3.249 4.276,-3.991 8.551,-7.982 12.827,-11.945 0.386,-0.36 -0.197,-0.938 -0.583,-0.578 -3.614,3.381 -7.227,6.735 -10.841,10.116 -1.6,1.469 -3.253,3.573 -5.27,4.491 -2.376,1.085 -5.648,-0.837 -7.782,-1.797 -0.499,-0.247 -0.911,0.473 -0.44,0.692 z"
       fill="#5a7099"
       id="path174" />
    <path
       d="m 202.653,211.641 c 0.919,1.709 2.936,1.012 3.956,-0.179 2.012,-2.382 3.58,-5.259 5.287,-7.833 0.303,-0.443 -0.418,-0.854 -0.721,-0.412 -1.074,1.606 -2.148,3.211 -3.221,4.816 -0.606,0.886 -3.274,5.672 -4.583,3.191 -0.251,-0.469 -0.969,-0.052 -0.718,0.417 z"
       fill="#5a7099"
       id="path176" />
    <path
       d="m 196.229,210.309 c 0.831,0.439 1.857,0.878 2.768,0.433 0.47,-0.25 0.662,-0.638 0.882,-1.08 0.385,-0.747 0.77,-1.328 1.488,-1.8 0.442,-0.305 0.025,-1.022 -0.417,-0.717 -0.663,0.444 -1.214,0.998 -1.599,1.718 -0.275,0.525 -0.439,1.161 -1.158,1.219 -0.526,0.057 -1.108,-0.273 -1.552,-0.492 -0.443,-0.22 -0.884,0.472 -0.412,0.719 z"
       fill="#5a7099"
       id="path178" />
    <path
       d="m 190.029,52.5402 c -0.962,1.9639 -1.92,5.2532 -2.22,6.3312 -0.438,1.5478 -1.422,5.1686 -1.959,9.9753 -0.296,2.652 -0.618,5.5526 -0.329,9.3901 0.145,1.8221 0.348,4.6933 1.439,8.2519 0.728,2.4277 1.791,5.9312 4.653,9.5115 2.501,3.1121 5.357,5.0628 7.63,6.2428 1.439,0.023 3.182,-0.066 5.118,-0.431 3.485,-0.675 6.192,-1.9814 8.015,-3.0369 0.253,1.4079 0.591,2.8979 1.011,4.4429 0.868,3.2 1.929,6.013 2.989,8.44 1.134,-0.197 2.488,-0.533 3.925,-1.201 4.559,-2.141 6.732,-6.07 7.501,-7.702 -0.42,-1.6 -0.758,-3.3385 -1.069,-5.1324 -1.074,-6.7068 -0.817,-12.7 -0.169,-17.5623 0.582,0.1914 1.523,0.4367 2.685,0.3776 2.269,-0.1456 3.814,-1.3934 4.587,-2.0588 0.662,-0.5545 3.669,-3.2431 3.545,-7.2192 -0.03,-0.9388 -0.093,-3.2306 -1.73,-4.4678 -1.526,-1.1271 -3.572,-0.706 -5.065,-0.3973 -1.715,0.3647 -2.985,1.087 -3.758,1.5866 0.574,-1.9073 1.776,-6.7991 -0.042,-12.4816 -0.391,-1.2137 -2.991,-8.9371 -10.584,-12.2531 -10.309,-4.5496 -22.655,2.2848 -26.173,9.3935 z"
       fill="#ffffff"
       id="path180" />
    <path
       opacity="0.24"
       d="m 221.298,52.6015 c 0.23,2.5674 0.408,6.2947 0.036,10.7143 -1.146,13.3969 -6.427,22.7206 -7.803,25.0449 -2.091,3.5416 -5.671,8.6899 -11.41,13.7623 1.715,-0.226 3.678,-0.62 5.779,-1.372 5.776,-2.063 9.638,-5.583 11.734,-7.882 0.176,3.0647 0.714,6.7908 1.973,10.874 0.559,1.737 1.173,3.337 1.815,4.771 1.46,-1.91 2.892,-3.821 4.352,-5.759 -0.31,-1.793 -0.593,-3.6979 -0.793,-5.6579 -0.657,-5.9349 -0.675,-11.4025 -0.359,-16.2637 1.245,0.0234 3.043,-0.093 4.95,-0.845 8.346,-3.3416 13.061,-16.5295 8.527,-23.6941 -0.195,-0.3031 -1.196,-1.8462 -3.248,-3.2201 -6.351,-4.2314 -14.393,-0.9736 -15.553,-0.4727 z"
       fill="#9b9797"
       id="path182" />
    <path
       d="m 188.027,58.0423 c -0.56,-1.9035 -1.347,-5.546 -0.559,-10.0222 0.244,-1.3816 1.087,-5.8303 4.119,-9.3475 4.438,-5.1235 10.031,-4.1757 17.272,-6.7956 4.588,-1.6446 10.886,-5.0898 17.251,-13.1746 -0.571,2.9843 -1.142,5.9962 -1.713,8.9805 0.997,0.2728 4.347,0.9796 7.773,-0.7163 5.691,-2.8081 6.166,-9.5477 6.193,-9.8515 0.697,1.5441 1.954,4.9641 1.415,9.329 -0.378,2.9836 -1.449,5.224 -2.22,6.5797 0.334,0.3578 2.111,2.1744 4.157,1.8915 2.49,-0.3397 4.803,-3.744 4.124,-8.1325 0.559,1.6274 1.232,4.3038 1.077,7.5904 -0.208,4.0048 -1.526,7.0192 -2.406,8.6514 0.222,0.1926 1.637,1.4581 3.629,1.2029 1.742,-0.2267 3.232,-1.502 3.807,-3.2988 -0.132,1.8506 -0.455,4.5303 -1.524,7.5991 -1.453,4.147 -2.669,4.4824 -3.268,7.4392 -0.953,4.6424 1.543,6.2081 0.892,10.3524 -0.541,3.4813 -2.803,5.6704 -5.672,8.469 -5.213,5.0709 -11.208,7.8248 -16.239,9.3604 0.216,-1.5471 0.46,-3.0944 0.676,-4.6415 0.638,0.3845 1.746,0.9054 3.13,0.8456 2.822,-0.1199 4.584,-2.6387 5.521,-3.995 1.074,-1.5223 2.864,-4.1241 1.886,-6.9099 -0.81,-2.2617 -2.944,-3.1934 -3.138,-3.2756 -2.494,-1.0411 -5.7,-0.0915 -7.767,2.456 -1.178,-4.5525 -2.327,-9.0774 -3.505,-13.6299 -3.937,-2.4721 -7.847,-4.9168 -11.785,-7.3889 -1.938,-0.3525 -7.225,-1.0528 -13.138,1.5903 -5.968,2.6709 -8.997,7.1822 -9.988,8.8424 z"
       fill="#ff00b7"
       id="path184" />
    <path
       d="m 187.612,57.9332 c -2.323,8.7892 -3.703,18.1275 -1.515,27.0949 1.796,7.2843 6.306,15.5809 13.951,17.9309 0.499,0.164 0.718,-0.638 0.219,-0.802 -7.673,-2.3492 -11.991,-10.9781 -13.592,-18.263 -1.883,-8.5542 -0.501,-17.3955 1.712,-25.7424 0.165,-0.4976 -0.638,-0.7159 -0.775,-0.2184 z"
       fill="#ffffff"
       id="path186" />
    <path
       d="m 200.657,102.818 c 12.752,-1.34 23.374,-10.5712 26.321,-23.0628 0.109,-0.525 -0.666,-0.7433 -0.803,-0.2182 -2.865,12.0771 -13.101,21.141 -25.521,22.453 -0.526,0.057 -0.551,0.886 0.003,0.828 z"
       fill="#ffffff"
       id="path188" />
    <path
       d="m 226.259,79.9785 c 5.712,3.4604 11.25,-3.8483 11.592,-8.9582 0.185,-2.7068 -1.067,-4.7737 -3.754,-5.5379 -2.492,-0.7097 -5.202,0.0449 -6.966,1.9286 -0.359,0.3878 0.224,0.9658 0.583,0.578 1.461,-1.5789 3.672,-2.2767 5.805,-1.8143 1.107,0.2448 2.327,0.8482 2.967,1.8402 0.695,1.0747 0.617,2.5661 0.455,3.7541 -0.65,4.2824 -5.389,10.4286 -10.269,7.4626 -0.444,-0.2471 -0.884,0.4724 -0.413,0.7469 z"
       fill="#ffffff"
       id="path190" />
    <path
       d="m 226.204,79.9235 c -1.054,7.6527 -0.641,15.4111 1.211,22.9165 0.14,0.524 0.942,0.3 0.802,-0.224 -1.824,-7.3671 -2.236,-14.9873 -1.21,-22.4743 0.054,-0.5248 -0.75,-0.7431 -0.803,-0.2182 z"
       fill="#ffffff"
       id="path192" />
    <path
       d="m 211.961,98.887 c 0.873,4.471 2.216,8.802 4.056,12.993 0.223,0.496 0.941,0.052 0.718,-0.417 -1.812,-4.108 -3.127,-8.384 -3.972,-12.7996 -0.113,-0.5243 -0.887,-0.3008 -0.802,0.2236 z"
       fill="#ffffff"
       id="path194" />
    <path
       d="m 216.598,111.988 c 5.338,-0.873 9.836,-4.561 11.839,-9.566 0.192,-0.498 -0.611,-0.716 -0.803,-0.218 -1.893,4.756 -6.226,8.167 -11.26,8.984 -0.525,0.085 -0.301,0.885 0.224,0.8 z"
       fill="#ffffff"
       id="path196" />
    <path
       d="m 212.628,99.8512 c 1.135,0.0514 1.907,-0.7244 2.763,-1.39 1.131,-0.8874 2.208,-1.8299 3.2,-2.8273 1.848,-1.8564 3.335,-3.9877 4.296,-6.421 0.192,-0.4977 -0.612,-0.7159 -0.804,-0.2182 -0.85,2.1568 -2.172,4.0666 -3.771,5.7288 -0.717,0.7756 -1.49,1.4686 -2.29,2.1616 -0.883,0.7485 -2.151,2.1887 -3.396,2.1377 -0.526,-0.0259 -0.523,0.8025 0.002,0.8284 z"
       fill="#ffffff"
       id="path198" />
    <path
       d="m 212.682,99.4094 c 2.347,-1.5266 4.527,-3.2736 6.569,-5.1859 0.386,-0.3602 -0.197,-0.9658 -0.583,-0.5779 -1.986,1.8844 -4.111,3.576 -6.403,5.0748 -0.47,0.2501 -0.025,0.9666 0.417,0.689 z"
       fill="#ffffff"
       id="path200" />
    <path
       d="m 196.278,59.5059 c -1.526,7.0468 -2.387,14.2019 -2.557,21.4098 0.001,0.4142 0.555,0.5505 0.775,0.2184 1.074,-1.7157 2.147,-3.459 3.221,-5.1747 0.275,-0.4428 -0.446,-0.8822 -0.721,-0.4118 -1.074,1.7157 -2.147,3.459 -3.22,5.1746 0.249,0.0821 0.526,0.1364 0.775,0.2184 0.17,-7.1251 1.032,-14.225 2.53,-21.1888 0.109,-0.5527 -0.694,-0.7709 -0.803,-0.2459 z"
       fill="#ffffff"
       id="path202" />
    <path
       d="m 197.491,91.2862 c -0.668,-1.2404 -1.115,-2.5644 -1.231,-3.9724 -0.086,-0.9938 0.122,-5.0262 2.009,-3.4309 0.999,0.8527 0.867,2.731 0.899,3.9735 0.002,0.5799 0.004,1.1874 -0.05,1.7675 -0.026,0.4143 -0.08,0.8287 -0.162,1.2156 -0.717,0.4994 -1.271,0.4737 -1.632,-0.0498 -0.361,-0.3854 -0.968,0.1965 -0.58,0.5818 1.194,1.2111 2.744,1.2612 3.07,-0.6453 0.244,-1.354 0.24,-2.7899 0.124,-4.1426 -0.086,-1.0767 -0.091,-2.6231 -0.897,-3.4489 -1.194,-1.211 -2.878,-0.0732 -3.344,1.2262 -0.85,2.3225 -0.01,5.2468 1.104,7.3418 0.223,0.4687 0.941,0.0521 0.69,-0.4165 z"
       fill="#ffffff"
       id="path204" />
    <path
       d="m 203.136,66.4142 c 0.843,3.8909 5.963,4.1775 7.473,0.5826 0.192,-0.4977 -0.611,-0.716 -0.803,-0.2183 -1.235,2.9313 -5.222,2.3924 -5.868,-0.5879 -0.112,-0.4966 -0.914,-0.3007 -0.802,0.2236 z"
       fill="#ffffff"
       id="path206" />
    <path
       d="m 201.472,56.8375 c 1.043,-2.3507 3.751,-3.492 6.243,-2.9756 2.576,0.5437 4.547,2.5253 5.827,4.7026 0.278,0.4685 0.996,0.0519 0.718,-0.4166 -1.475,-2.508 -3.807,-4.737 -6.797,-5.1688 -2.685,-0.3777 -5.559,0.9022 -6.712,3.419 -0.22,0.5254 0.501,0.9372 0.721,0.4394 z"
       fill="#ffffff"
       id="path208" />
    <path
       d="m 185.259,57.8031 c 0.742,-1.5489 2.037,-3.2377 3.947,-3.2165 1.826,0.0215 3.159,1.6187 4.077,3.024 0.279,0.4409 0.997,0.0243 0.718,-0.4166 -1.057,-1.681 -2.64,-3.4154 -4.798,-3.4358 -2.214,-0.0203 -3.757,1.8075 -4.637,3.633 -0.247,0.4702 0.473,0.8821 0.693,0.4119 z"
       fill="#ffffff"
       id="path210" />
    <path
       d="m 190.199,70.2959 c 0.489,-0.0016 0.879,-1.8203 0.872,-4.0622 -0.008,-2.2419 -0.41,-4.058 -0.899,-4.0564 -0.489,0.0017 -0.88,1.8204 -0.872,4.0623 0.007,2.2419 0.41,4.0579 0.899,4.0563 z"
       fill="#ffffff"
       id="path212" />
    <path
       d="m 192.891,113.973 c -0.08,1.022 -0.186,2.431 -0.236,4.06 -0.23,5.579 0.005,9.803 0.092,10.935 0.234,3.672 0.748,8.475 1.929,14.05 -1.103,1.274 -2.757,3.157 -4.88,5.373 -4.026,4.239 -6.094,6.399 -9.407,8.647 -3.7,2.498 -6.271,3.28 -7.653,3.643 -1.742,0.42 -3.401,0.813 -5.422,0.377 -3.296,-0.734 -5.269,-3.158 -5.991,-4.094 -1.834,-2.314 -2.257,-4.577 -3.019,-8.992 -0.564,-3.229 -0.683,-5.687 -0.865,-10.436 -0.09,-2.264 -0.21,-5.025 -0.167,-8.725 0.041,-4.17 0.246,-9.114 0.836,-14.639 0.269,-2.486 0.646,-5.553 1.243,-9.034 -0.473,-0.661 -0.973,-1.322 -1.501,-2.011 -0.556,-0.716 -1.084,-1.405 -1.639,-2.093 -1.408,1.192 -2.787,2.412 -4.195,3.604 -0.359,0.139 -0.994,0.362 -1.77,0.282 -1.467,-0.133 -2.328,-1.152 -2.633,-1.482 -1.361,-1.542 -1.174,-3.5036 -1.12,-3.8904 1.902,-2.0774 3.805,-4.1272 5.735,-6.2048 0.024,-1.1875 0.184,-2.7344 0.649,-4.4481 0.356,-1.2714 0.795,-2.3222 1.207,-3.2073 0.357,-0.7191 0.853,-1.5216 1.486,-2.3246 1.13,-1.4949 2.344,-2.5483 3.338,-3.2696 -0.802,0.3616 -0.995,0.3623 -1.051,0.3072 -0.139,-0.2204 1.156,-1.854 2.982,-2.0258 1.023,-0.1139 1.827,0.2701 2.381,0.5167 0.86,0.4114 1.442,0.9341 1.803,1.3195 1.711,-1.4693 3.422,-2.9386 5.133,-4.3802 0.61,0.3569 1.22,0.7691 1.83,1.1813 1.414,0.9618 2.691,1.924 3.828,2.8591 -0.413,0.5261 -0.937,1.1077 -1.599,1.6898 -1.104,0.9702 -2.209,1.5538 -3.065,1.9433 0.526,0.1639 1.468,0.5474 1.942,1.4571 0.473,0.882 0.283,1.8492 0.01,3.0651 -0.191,0.8291 -0.438,1.4927 -0.63,1.9352 0.115,1.1594 0.175,2.7332 -0.151,4.5016 -0.516,2.9013 -1.726,5.0593 -2.552,6.3049 -0.024,1.077 -0.047,2.761 0.016,4.832 0.25,8.532 1.512,13.526 2.335,19.82 0.482,3.588 0.971,8.916 0.855,15.627 0.635,-0.417 1.546,-1.082 2.567,-1.942 2.593,-2.19 4.246,-4.377 6.422,-7.588 2.148,-3.127 3.551,-5.452 5.45,-8.551 1.183,-2.02 3.082,-5.091 5.477,-8.993 z"
       fill="#ffffff"
       id="path214" />
    <path
       opacity="0.24"
       d="m 167.653,88.8453 c -0.576,1.2722 -1.153,2.572 -1.73,3.8994 -1.675,3.9821 -3.045,7.7973 -4.168,11.4463 -0.23,5.745 -0.352,10.55 -0.451,14.03 -0.121,5.275 0.232,11.569 0.883,24.16 0.267,5.19 0.499,8.337 2.941,10.621 2.554,2.367 6.096,2.41 8.088,2.403 10.626,-0.063 18.537,-9.119 20.715,-11.75 -2.944,5.036 -6.309,8.333 -8.6,10.274 -2.593,2.19 -5.932,4.935 -11.13,6.306 -4.396,1.174 -6.389,0.932 -6.915,0.824 -3.794,-0.899 -5.908,-4.04 -6.658,-5.115 -1.808,-2.672 -2.398,-5.459 -2.75,-11.45 -0.353,-6.157 0.001,-7.788 0.084,-16.266 0.056,-8.091 -0.256,-10.382 0.334,-15.99 0.348,-3.287 0.782,-5.995 1.136,-7.818 -1.083,-1.129 -2.166,-2.257 -3.249,-3.358 -0.911,0.803 -1.849,1.58 -2.787,2.384 -0.607,0.526 -1.242,1.053 -1.849,1.552 -0.553,0.057 -1.355,0.033 -2.214,-0.324 -2.217,-0.931 -3.61,-3.66 -2.921,-4.601 0.44,-0.6371 1.604,-0.1439 3.209,-0.1493 2.767,0.0184 4.616,-1.3961 8.288,-4.0594 2.595,-1.914 5.576,-4.0503 9.744,-7.019 z"
       fill="#9b9797"
       id="path216" />
    <path
       d="m 192.53,113.753 c -6.362,8.831 -11.06,18.953 -19.115,26.491 -0.386,0.361 0.197,0.939 0.583,0.578 8.11,-7.593 12.835,-17.771 19.253,-26.657 0.331,-0.415 -0.39,-0.827 -0.721,-0.412 z"
       fill="#5a7099"
       id="path218" />
    <path
       d="m 168.893,161.688 c 10.955,-0.754 18.783,-9.948 25.343,-17.758 0.331,-0.415 -0.252,-0.993 -0.583,-0.578 -6.367,7.643 -14.084,16.782 -24.735,17.535 -0.554,0.002 -0.551,0.831 -0.025,0.801 z"
       fill="#5a7099"
       id="path220" />
    <path
       d="m 163.431,83.9164 c 0.062,2.1814 1.508,4.0543 3.613,4.6548 0.526,0.1363 0.745,-0.6652 0.218,-0.8015 -1.745,-0.4913 -2.94,-2.0613 -3.001,-3.856 -0.029,-0.5246 -0.86,-0.5218 -0.83,0.0027 z"
       fill="#5a7099"
       id="path222" />
    <path
       d="m 164.288,83.665 c 0.269,-2.4033 4.563,-0.678 5.728,-0.0743 1.136,0.5761 2.272,1.1522 2.526,2.5321 0.197,1.0486 -0.131,2.1543 -0.404,3.177 -0.137,0.5251 0.666,0.7433 0.803,0.2182 0.383,-1.382 0.792,-2.9574 0.207,-4.3085 -0.558,-1.3789 -2.082,-2.0089 -3.329,-2.6123 -1.275,-0.6033 -2.66,-1.0405 -4.099,-0.87 -0.581,0.0848 -1.327,0.2254 -1.796,0.6135 -0.497,0.3883 -0.385,0.6641 -0.466,1.3547 -0.054,0.4973 0.776,0.4945 0.83,-0.0304 z"
       fill="#5a7099"
       id="path224" />
    <path
       d="m 171.86,89.1351 c -0.076,2.0989 0.402,4.1408 -0.089,6.2411 -0.464,1.9346 -1.399,3.7327 -2.334,5.4758 -0.248,0.47 0.473,0.882 0.721,0.412 0.962,-1.8263 1.924,-3.6797 2.416,-5.6695 0.518,-2.1557 0.041,-4.2804 0.116,-6.4622 0.026,-0.5524 -0.804,-0.5496 -0.83,0.0028 z"
       fill="#5a7099"
       id="path226" />
    <path
       d="m 169.437,100.879 c -0.588,14.555 3.638,28.79 3.023,43.345 -0.026,0.525 0.804,0.522 0.83,-0.003 0.615,-14.555 -3.611,-28.79 -3.023,-43.345 0.026,-0.524 -0.804,-0.522 -0.83,0.003 z"
       fill="#5a7099"
       id="path228" />
    <path
       d="m 155.851,101.228 c 0.834,1.157 1.724,2.259 2.723,3.277 0.361,0.386 0.94,-0.196 0.579,-0.581 -0.944,-0.991 -1.805,-2.01 -2.584,-3.112 -0.333,-0.441 -1.051,-0.024 -0.718,0.416 z"
       fill="#5a7099"
       id="path230" />
    <path
       d="m 159.044,104.283 c -1.547,8.98 -2.292,18.095 -2.234,27.208 0.043,4.528 0.28,9.084 0.738,13.584 0.372,3.837 0.828,7.867 2.86,11.229 1.836,3.059 5.054,5.368 8.706,5.273 0.526,-0.029 0.523,-0.858 -0.003,-0.828 -5.119,0.155 -8.427,-4.391 -9.631,-8.86 -1.345,-4.911 -1.474,-10.268 -1.684,-15.321 -0.451,-10.712 0.26,-21.484 2.079,-32.039 0.053,-0.553 -0.75,-0.771 -0.831,-0.246 z"
       fill="#5a7099"
       id="path232" />
    <path
       d="m 153.773,91.9016 c -2.594,2.1902 -5.105,4.4906 -7.476,6.901 -0.386,0.3879 0.224,0.9658 0.583,0.578 2.399,-2.4105 4.882,-4.7108 7.476,-6.901 0.414,-0.3328 -0.169,-0.9108 -0.583,-0.578 z"
       fill="#5a7099"
       id="path234" />
    <path
       d="m 146.05,99.5491 c -0.404,3.2049 2.04,5.9029 5.277,5.8639 0.526,-10e-4 0.523,-0.83 -0.002,-0.828 -2.795,0.037 -4.795,-2.304 -4.445,-5.0387 0.082,-0.5249 -0.749,-0.5221 -0.83,0.0028 z"
       fill="#5a7099"
       id="path236" />
    <path
       d="m 146.824,99.3532 c 2.906,0.0732 4.935,2.6618 4.335,5.4808 -0.109,0.525 0.695,0.743 0.804,0.218 0.735,-3.399 -1.655,-6.4284 -5.141,-6.5272 -0.526,0.0018 -0.523,0.8302 0.002,0.8284 z"
       fill="#5a7099"
       id="path238" />
    <path
       d="m 152.294,104.913 c 3.145,-2.882 6.345,-5.7374 9.407,-8.7024 1.407,-1.3578 2.758,-2.743 4.026,-4.2384 0.689,-0.8032 2.427,-2.383 2.451,-3.4876 0,-0.1381 -0.084,-0.3035 -0.195,-0.3584 -0.055,-0.0274 -0.111,-0.0548 -0.138,-0.0548 -0.167,-0.0822 -0.388,-0.0815 -0.498,0.0569 -0.028,0.0278 -0.056,0.0555 -0.083,0.1108 -0.331,0.4153 0.252,0.9933 0.583,0.5779 0.028,-0.0277 0.055,-0.0554 0.083,-0.1107 -0.166,0.0282 -0.332,0.0563 -0.498,0.0569 -0.056,-0.2484 -0.139,-0.2481 -0.249,0.0284 -0.138,0.1938 -0.276,0.3876 -0.441,0.5814 -0.331,0.4153 -0.634,0.8306 -0.992,1.246 -0.551,0.6922 -1.158,1.357 -1.737,2.0216 -1.213,1.3296 -2.481,2.5765 -3.778,3.7959 -2.813,2.6604 -5.683,5.2385 -8.524,7.8705 -0.414,0.388 0.197,0.966 0.583,0.606 z"
       fill="#5a7099"
       id="path240" />
    <path
       d="m 152.616,93.452 c 0.189,-1.3262 0.378,-2.6523 0.567,-3.9784 0.135,-0.9946 0.242,-2.0995 0.793,-2.985 1.266,-2.0477 3.069,-0.5902 4.042,0.7873 0.417,0.5785 0.807,1.2123 1.224,1.7908 0.222,0.3307 1.306,1.5145 1.169,1.9292 0.138,-0.111 0.276,-0.1943 0.386,-0.3051 -0.055,2e-4 -0.083,3e-4 -0.138,5e-4 -0.526,-0.0259 -0.523,0.8025 0.002,0.8284 0.056,-2e-4 0.083,-3e-4 0.139,-5e-4 0.193,-6e-4 0.359,-0.1392 0.386,-0.305 0.192,-0.691 -0.28,-1.1037 -0.642,-1.6547 -0.695,-1.0195 -1.363,-2.0666 -2.085,-3.0583 -0.751,-1.0192 -1.723,-2.0101 -3.106,-1.8674 -1.328,0.1425 -2.127,1.1669 -2.538,2.3557 -0.685,1.9629 -0.733,4.1999 -1.03,6.2443 -0.054,0.5249 0.749,0.7431 0.831,0.2182 z"
       fill="#5a7099"
       id="path242" />
    <path
       d="m 153.906,90.3273 c 0.752,1.4611 2.002,2.9481 3.773,3.0526 1.467,0.1056 2.848,-0.7275 3.231,-2.1647 0.136,-0.5252 -0.667,-0.7434 -0.804,-0.2183 -0.355,1.3267 -1.82,1.8287 -3.039,1.4185 -1.163,-0.4103 -1.914,-1.4295 -2.443,-2.4771 -0.251,-0.4962 -0.969,-0.0796 -0.718,0.389 z"
       fill="#5a7099"
       id="path244" />
    <path
       d="m 154.911,84.9391 c 0.134,-1.3536 1.683,-1.7177 2.735,-1.3623 1.108,0.3553 1.97,1.3466 2.747,2.1448 0.611,0.6331 1.804,1.5128 1.973,2.3959 0.225,1.1866 -1.267,1.9924 -2.262,2.2995 -0.497,0.1398 -0.301,0.9399 0.224,0.8001 1.217,-0.3631 2.984,-1.4459 3.173,-2.8825 0.081,-0.5802 -0.28,-0.8827 -0.669,-1.2957 -0.777,-0.8258 -1.527,-1.6241 -2.332,-2.4223 -1.083,-1.1009 -2.47,-2.2837 -4.13,-2.002 -1.244,0.1974 -2.155,1.0289 -2.289,2.2996 -0.053,0.5525 0.777,0.5497 0.83,0.0249 z"
       fill="#5a7099"
       id="path246" />
    <path
       d="m 156.399,82.8906 c 0.386,-0.4431 0.578,-1.0237 0.936,-1.4667 0.882,-1.1075 2.269,-0.0904 3.184,0.5693 1.775,1.2367 3.664,3.4948 2.067,5.6541 -0.303,0.4428 0.417,0.8546 0.72,0.4118 1.708,-2.3254 0.011,-4.9983 -1.958,-6.4829 -0.916,-0.6873 -2.303,-1.9253 -3.547,-1.5622 -1.106,0.3075 -1.296,1.5784 -1.985,2.3263 -0.359,0.3602 0.224,0.9381 0.583,0.5503 z"
       fill="#5a7099"
       id="path248" />
    <path
       d="m 159.185,80.3683 c 0.965,-1.1907 2.234,-2.4376 3.732,-1.1999 0.999,0.7975 1.639,1.9275 2.003,3.1137 0.167,0.4965 0.942,0.3007 0.801,-0.2236 -0.475,-1.6 -1.561,-3.4466 -3.168,-4.1039 -1.635,-0.6573 -2.986,0.6451 -3.951,1.8357 -0.33,0.3877 0.253,0.9933 0.583,0.578 z"
       fill="#5a7099"
       id="path250" />
    <path
       d="m 165.301,80.4584 c 1.711,-1.4693 3.421,-2.9386 5.132,-4.3802 0.414,-0.3604 -0.197,-0.9383 -0.583,-0.578 -1.711,1.4693 -3.421,2.9386 -5.132,4.3802 -0.414,0.3604 0.197,0.9383 0.583,0.578 z"
       fill="#5a7099"
       id="path252" />
    <path
       d="m 171.428,83.9726 c 1.629,-1.1929 3.202,-2.4684 4.664,-3.854 0.386,-0.3603 -0.197,-0.9383 -0.583,-0.578 -1.435,1.3303 -2.925,2.5779 -4.498,3.7154 -0.442,0.3052 -0.025,1.0218 0.417,0.7166 z"
       fill="#5a7099"
       id="path254" />
    <path
       d="m 183.845,81.86 c 9.231,-0.0308 16.689,-7.5233 16.658,-16.7348 -0.031,-9.2116 -7.538,-16.654 -16.769,-16.6232 -9.23,0.0309 -16.688,7.5233 -16.658,16.7348 0.031,9.2116 7.539,16.654 16.769,16.6232 z"
       stroke="#60eaf8"
       stroke-width="3"
       stroke-miterlimit="10"
       id="path256" />
    <path
       d="m 173.669,67.2583 c 6.13,-3.9418 12.399,-7.663 18.807,-11.1639 0.469,-0.2501 0.052,-0.9667 -0.418,-0.7166 -6.408,3.4733 -12.677,7.1946 -18.806,11.1639 -0.442,0.3052 -0.025,1.0218 0.417,0.7166 z"
       fill="#5a7099"
       id="path258" />
    <path
       d="m 174.385,74.4909 c 5.051,-3.7173 10.159,-7.2966 15.377,-10.7935 0.441,-0.3052 0.024,-1.0218 -0.418,-0.7165 -5.19,3.4967 -10.325,7.1038 -15.377,10.7934 -0.441,0.3052 -0.024,1.0218 0.418,0.7166 z"
       fill="#5a7099"
       id="path260" />
  </g>
  <defs
     id="defs267">
    <clipPath
       id="clip0_15_75">
      <rect
         width="336"
         height="304"
         fill="#ffffff"
         id="rect264"
         x="0"
         y="0" />
    </clipPath>
  </defs>
</svg>
